{
  "source": "C:\\Users\\Peter\\Desktop\\stuff\\MIUN\\quantitative_research\\video_compression\\videos\\BVI-HD\\TreeGrassFamily_1920x1080_30fps.mp4",
  "output": "C:\\Users\\Peter\\Desktop\\stuff\\MIUN\\quantitative_research\\video_compression\\compressed_videos\\BVI-HD\\vp9\\12\\TreeGrassFamily_1920x1080_30fps_vp9.webm",
  "codec": "vp9",
  "ok": "Input #0, mov,mp4,m4a,3gp,3g2,mj2, from 'C:\\Users\\Peter\\Desktop\\stuff\\MIUN\\quantitative_research\\video_compression\\videos\\BVI-HD\\TreeGrassFamily_1920x1080_30fps.mp4':\n  Metadata:\n    major_brand     : isom\n    minor_version   : 512\n    compatible_brands: isomiso2avc1mp41\n    encoder         : Lavf54.28.101\n  Duration: 00:00:05.00, start: 0.000000, bitrate: 331787 kb/s\n  Stream #0:0[0x1](und): Video: h264 (High 4:4:4 Predictive) (avc1 / 0x31637661), yuv420p(progressive), 1920x1080, 331784 kb/s, 30 fps, 30 tbr, 30 tbn (default)\n    Metadata:\n      handler_name    : VideoHandler\n      vendor_id       : [0][0][0][0]\n[out#0/webm @ 000002d9d83093c0] Codec AVOption b:a (set bitrate (in bits/s)) has not been used for any stream. The most likely reason is either wrong type (e.g. a video option with no video streams) or that it is a private option of some decoder which was not actually used for any stream.\nStream mapping:\n  Stream #0:0 -> #0:0 (h264 (native) -> vp9 (libvpx-vp9))\nPress [q] to stop, [?] for help\n[libvpx-vp9 @ 000002d9da480340] v1.15.2-100-g40561f514\nOutput #0, webm, to 'C:\\Users\\Peter\\Desktop\\stuff\\MIUN\\quantitative_research\\video_compression\\compressed_videos\\BVI-HD\\vp9\\12\\TreeGrassFamily_1920x1080_30fps_vp9.webm':\n  Metadata:\n    major_brand     : isom\n    minor_version   : 512\n    compatible_brands: isomiso2avc1mp41\n    encoder         : Lavf62.3.100\n  Stream #0:0(und): Video: vp9, yuv420p(tv, progressive), 1920x1080, q=2-31, 12000 kb/s, 30 fps, 1k tbn (default)\n    Metadata:\n      encoder         : Lavc62.11.100 libvpx-vp9\n      handler_name    : VideoHandler\n      vendor_id       : [0][0][0][0]\n    Side data:\n      cpb: bitrate max/min/avg: 0/0/0 buffer size: 12000000 vbv_delay: N/A\nframe=    0 fps=0.0 q=0.0 size=       0KiB time=N/A bitrate=N/A speed=N/A elapsed=0:00:00.51    \nframe=    1 fps=0.9 q=12.0 size=       1KiB time=00:00:00.03 bitrate= 152.2kbits/s speed=0.0287x elapsed=0:00:01.16    \nframe=    5 fps=3.0 q=45.0 size=       1KiB time=00:00:00.16 bitrate=  30.4kbits/s speed=0.0984x elapsed=0:00:01.69    \nframe=    8 fps=3.6 q=45.0 size=       1KiB time=00:00:00.26 bitrate=  19.0kbits/s speed=0.12x elapsed=0:00:02.23    \nframe=   11 fps=4.0 q=20.0 size=       1KiB time=00:00:00.36 bitrate=  13.8kbits/s speed=0.132x elapsed=0:00:02.76    \nframe=   14 fps=4.3 q=44.0 size=       1KiB time=00:00:00.46 bitrate=  10.9kbits/s speed=0.142x elapsed=0:00:03.28    \nframe=   17 fps=4.4 q=44.0 size=       1KiB time=00:00:00.56 bitrate=   9.0kbits/s speed=0.147x elapsed=0:00:03.86    \nframe=   19 fps=4.3 q=44.0 size=       1KiB time=00:00:00.63 bitrate=   8.0kbits/s speed=0.145x elapsed=0:00:04.38    \nframe=   22 fps=4.5 q=45.0 size=       1KiB time=00:00:00.73 bitrate=   6.9kbits/s speed=0.15x elapsed=0:00:04.90    \nframe=   25 fps=4.6 q=44.0 size=       1KiB time=00:00:00.83 bitrate=   6.1kbits/s speed=0.153x elapsed=0:00:05.44    \nframe=   28 fps=4.7 q=45.0 size=       1KiB time=00:00:00.93 bitrate=   5.4kbits/s speed=0.156x elapsed=0:00:05.98    \nframe=   30 fps=4.6 q=45.0 size=       1KiB time=00:00:01.00 bitrate=   5.1kbits/s speed=0.154x elapsed=0:00:06.49    \nframe=   33 fps=4.7 q=44.0 size=       1KiB time=00:00:01.10 bitrate=   4.6kbits/s speed=0.157x elapsed=0:00:07.02    \nframe=   35 fps=4.6 q=44.0 size=       1KiB time=00:00:01.16 bitrate=   4.3kbits/s speed=0.155x elapsed=0:00:07.54    \nframe=   38 fps=4.7 q=45.0 size=       1KiB time=00:00:01.26 bitrate=   4.0kbits/s speed=0.157x elapsed=0:00:08.05    \nframe=   40 fps=4.7 q=45.0 size=       1KiB time=00:00:01.33 bitrate=   3.8kbits/s speed=0.155x elapsed=0:00:08.57    \nframe=   43 fps=4.7 q=46.0 size=       1KiB time=00:00:01.43 bitrate=   3.5kbits/s speed=0.158x elapsed=0:00:09.09    \nframe=   46 fps=4.8 q=46.0 size=       1KiB time=00:00:01.53 bitrate=   3.3kbits/s speed=0.16x elapsed=0:00:09.60    \nframe=   49 fps=4.8 q=46.0 size=       1KiB time=00:00:01.63 bitrate=   3.1kbits/s speed=0.161x elapsed=0:00:10.13    \nframe=   51 fps=4.8 q=25.0 size=       1KiB time=00:00:01.70 bitrate=   3.0kbits/s speed=0.159x elapsed=0:00:10.66    \nframe=   54 fps=4.8 q=46.0 size=       1KiB time=00:00:01.80 bitrate=   2.8kbits/s speed=0.161x elapsed=0:00:11.18    \nframe=   57 fps=4.9 q=46.0 size=       1KiB time=00:00:01.90 bitrate=   2.7kbits/s speed=0.162x elapsed=0:00:11.70    \nframe=   60 fps=4.9 q=46.0 size=       1KiB time=00:00:02.00 bitrate=   2.5kbits/s speed=0.164x elapsed=0:00:12.22    \nframe=   63 fps=4.9 q=45.0 size=       1KiB time=00:00:02.10 bitrate=   2.4kbits/s speed=0.165x elapsed=0:00:12.75    \nframe=   65 fps=4.9 q=46.0 size=       1KiB time=00:00:02.16 bitrate=   2.3kbits/s speed=0.163x elapsed=0:00:13.27    \nframe=   68 fps=4.9 q=46.0 size=       1KiB time=00:00:02.26 bitrate=   2.2kbits/s speed=0.164x elapsed=0:00:13.79    \nframe=   70 fps=4.9 q=46.0 size=       1KiB time=00:00:02.33 bitrate=   2.2kbits/s speed=0.163x elapsed=0:00:14.32    \nframe=   73 fps=4.9 q=45.0 size=       1KiB time=00:00:02.43 bitrate=   2.1kbits/s speed=0.164x elapsed=0:00:14.83    \nframe=   76 fps=4.9 q=46.0 size=       1KiB time=00:00:02.53 bitrate=   2.0kbits/s speed=0.165x elapsed=0:00:15.36    \nframe=   79 fps=5.0 q=46.0 size=       1KiB time=00:00:02.63 bitrate=   1.9kbits/s speed=0.166x elapsed=0:00:15.88    \nframe=   81 fps=4.9 q=25.0 size=       1KiB time=00:00:02.70 bitrate=   1.9kbits/s speed=0.165x elapsed=0:00:16.40    \nframe=   84 fps=5.0 q=46.0 size=       1KiB time=00:00:02.80 bitrate=   1.8kbits/s speed=0.165x elapsed=0:00:16.93    \nframe=   87 fps=5.0 q=47.0 size=       1KiB time=00:00:02.90 bitrate=   1.7kbits/s speed=0.166x elapsed=0:00:17.48    \nframe=   90 fps=5.0 q=47.0 size=       1KiB time=00:00:03.00 bitrate=   1.7kbits/s speed=0.166x elapsed=0:00:18.03    \nframe=   92 fps=5.0 q=47.0 size=       1KiB time=00:00:03.06 bitrate=   1.7kbits/s speed=0.165x elapsed=0:00:18.57    \nframe=   95 fps=5.0 q=47.0 size=       1KiB time=00:00:03.16 bitrate=   1.6kbits/s speed=0.166x elapsed=0:00:19.08    \nframe=   98 fps=5.0 q=47.0 size=       1KiB time=00:00:03.26 bitrate=   1.6kbits/s speed=0.167x elapsed=0:00:19.61    \nframe=  101 fps=5.0 q=26.0 size=       1KiB time=00:00:03.36 bitrate=   1.5kbits/s speed=0.167x elapsed=0:00:20.15    \nframe=  104 fps=5.0 q=47.0 size=       1KiB time=00:00:03.46 bitrate=   1.5kbits/s speed=0.168x elapsed=0:00:20.67    \nframe=  107 fps=5.0 q=47.0 size=       1KiB time=00:00:03.56 bitrate=   1.4kbits/s speed=0.168x elapsed=0:00:21.20    \nframe=  110 fps=5.1 q=47.0 size=       1KiB time=00:00:03.66 bitrate=   1.4kbits/s speed=0.169x elapsed=0:00:21.74    \nframe=  112 fps=5.0 q=47.0 size=       1KiB time=00:00:03.73 bitrate=   1.4kbits/s speed=0.168x elapsed=0:00:22.26    \nframe=  115 fps=5.0 q=47.0 size=       1KiB time=00:00:03.83 bitrate=   1.3kbits/s speed=0.168x elapsed=0:00:22.78    \nframe=  118 fps=5.1 q=47.0 size=       1KiB time=00:00:03.93 bitrate=   1.3kbits/s speed=0.169x elapsed=0:00:23.30    \nframe=  120 fps=5.0 q=47.0 size=       1KiB time=00:00:04.00 bitrate=   1.3kbits/s speed=0.168x elapsed=0:00:23.84    \nframe=  124 fps=5.1 q=48.0 size=       1KiB time=00:00:04.13 bitrate=   1.2kbits/s speed=0.17x elapsed=0:00:24.36    \nframe=  126 fps=5.1 q=48.0 size=       1KiB time=00:00:04.20 bitrate=   1.2kbits/s speed=0.169x elapsed=0:00:24.88    \nframe=  126 fps=5.0 q=48.0 size=       1KiB time=00:00:04.20 bitrate=   1.2kbits/s speed=0.165x elapsed=0:00:25.40    \nframe=  126 fps=4.9 q=48.0 size=       1KiB time=00:00:04.20 bitrate=   1.2kbits/s speed=0.162x elapsed=0:00:25.92    \nframe=  126 fps=4.8 q=48.0 size=       1KiB time=00:00:04.20 bitrate=   1.2kbits/s speed=0.159x elapsed=0:00:26.45    \nframe=  126 fps=4.7 q=48.0 size=       1KiB time=00:00:04.20 bitrate=   1.2kbits/s speed=0.156x elapsed=0:00:26.97    \nframe=  126 fps=4.6 q=48.0 size=       1KiB time=00:00:04.20 bitrate=   1.2kbits/s speed=0.153x elapsed=0:00:27.49    \nframe=  126 fps=4.5 q=48.0 size=       1KiB time=00:00:04.20 bitrate=   1.2kbits/s speed=0.15x elapsed=0:00:28.01    \nframe=  126 fps=4.4 q=48.0 size=       1KiB time=00:00:04.20 bitrate=   1.2kbits/s speed=0.147x elapsed=0:00:28.53    \nframe=  126 fps=4.3 q=48.0 size=       1KiB time=00:00:04.20 bitrate=   1.2kbits/s speed=0.145x elapsed=0:00:29.06    \n[out#0/webm @ 000002d9d83093c0] video:6034KiB audio:0KiB subtitle:0KiB other streams:0KiB global headers:0KiB muxing overhead: 0.030688%\nframe=  150 fps=5.2 q=47.0 Lsize=    6035KiB time=00:00:05.00 bitrate=9888.4kbits/s speed=0.172x elapsed=0:00:29.09    \n",
  "seconds": 29.416746854782104,
  "probe_out": {}
}